<svg width="73" height="21" viewBox="0 0 73 21" fill="none" xmlns="http://www.w3.org/2000/svg">
    <circle r="10.5" transform="matrix(1 0 0 -1 10.5 10.5)" fill="#FC3939"/>
    <path d="M40.528 2.57599C41.6373 2.57599 42.576 2.87466 43.344 3.47199L42.32 6.92799C41.872 6.62932 41.4453 6.41599 41.04 6.28799C40.6347 6.15999 40.1333 6.09599 39.536 6.09599C38.128 6.09599 37.1147 7.03465 36.496 8.91199V18H32.336V7.59999C32.336 7.02399 32.2187 6.55465 31.984 6.19199C31.7707 5.82932 31.376 5.43465 30.8 5.00799L33.584 2.57599C34.3093 2.95999 34.8853 3.36532 35.312 3.79199C35.7387 4.21866 36.048 4.73065 36.24 5.32799C36.6667 4.49599 37.232 3.83465 37.936 3.34399C38.64 2.83199 39.504 2.57599 40.528 2.57599Z" fill="white"/>
    <path d="M51.1027 15.248C51.8921 15.248 52.5321 15.152 53.0227 14.96C53.5134 14.7467 54.0467 14.384 54.6227 13.872L57.0867 16.112C55.8494 17.6267 53.8547 18.384 51.1027 18.384C48.6494 18.384 46.8787 17.9253 45.7907 17.008C44.7027 16.0693 44.1587 14.5547 44.1587 12.464V7.88799C44.1587 6.24532 44.7454 4.95465 45.9187 4.01599C47.1134 3.05599 48.7347 2.57599 50.7827 2.57599C52.8947 2.57599 54.5481 3.08799 55.7427 4.11199C56.9374 5.11465 57.5347 6.58665 57.5347 8.52799C57.5347 9.46666 57.4494 10.192 57.2787 10.704C57.1294 11.216 56.8201 11.6 56.3507 11.856C55.8814 12.0907 55.1987 12.208 54.3027 12.208H48.2867V12.496C48.2867 14.3307 49.2254 15.248 51.1027 15.248ZM50.7827 5.71199C49.9934 5.71199 49.3747 5.94666 48.9267 6.41599C48.5001 6.86399 48.2867 7.46132 48.2867 8.20799V9.35999H51.9347C52.4894 9.35999 52.8734 9.27466 53.0867 9.10399C53.3001 8.93332 53.4067 8.63466 53.4067 8.20799C53.4067 7.39732 53.1827 6.77865 52.7347 6.35199C52.2867 5.92532 51.6361 5.71199 50.7827 5.71199Z" fill="white"/>
    <path d="M66.852 18.384C64.6333 18.384 62.9267 17.872 61.732 16.848C60.5373 15.824 59.94 14.3627 59.94 12.464V8.49599C59.94 6.59732 60.5373 5.13599 61.732 4.11199C62.9267 3.08799 64.6333 2.57599 66.852 2.57599C69.6253 2.57599 71.6093 3.41866 72.804 5.10399L69.956 7.40799C69.444 6.81065 68.9747 6.39465 68.548 6.15999C68.1213 5.90399 67.556 5.77599 66.852 5.77599C65.9773 5.77599 65.2947 6.01065 64.804 6.47999C64.3347 6.94932 64.1 7.62132 64.1 8.49599V12.464C64.1 13.3387 64.3347 14.0107 64.804 14.48C65.2947 14.9493 65.9773 15.184 66.852 15.184C67.556 15.184 68.1213 15.0667 68.548 14.832C68.9747 14.576 69.444 14.1493 69.956 13.552L72.804 15.856C72.2067 16.7093 71.4387 17.3493 70.5 17.776C69.5613 18.1813 68.3453 18.384 66.852 18.384Z" fill="white"/>
</svg>